<?xml version="1.0" encoding="utf-8"?>
<!-- Generator: Adobe Illustrator 15.1.0, SVG Export Plug-In  -->
<!DOCTYPE svg PUBLIC "-//W3C//DTD SVG 1.1 Tiny//EN" "http://www.w3.org/Graphics/SVG/1.1/DTD/svg11-tiny.dtd" [
	<!ENTITY ns_flows "http://ns.adobe.com/Flows/1.0/">
]>
<svg version="1.1" baseProfile="tiny"
	 xmlns="http://www.w3.org/2000/svg" xmlns:xlink="http://www.w3.org/1999/xlink" xmlns:a="http://ns.adobe.com/AdobeSVGViewerExtensions/3.0/"
	 x="0px" y="0px" width="100px" height="100px" viewBox="-11.091 -13.848 100 100" xml:space="preserve">
<defs>
</defs>
<path fill="#3D3736" d="M67.61,58.662c-0.858,0-1.553-0.694-1.553-1.552V14.326c0-0.857,0.694-1.553,1.553-1.553
	c0.856,0,1.552,0.695,1.552,1.553V57.11C69.162,57.967,68.467,58.662,67.61,58.662z"/>
<path fill="#3D3736" d="M77.357,58.058c0,0.857-0.695,1.553-1.553,1.553h-16.39c-0.857,0-1.552-0.695-1.552-1.553
	s0.694-1.553,1.552-1.553h16.39C76.662,56.505,77.357,57.201,77.357,58.058z"/>
<path fill="#3D3736" d="M77.357,14.326c0,0.857-0.695,1.553-1.553,1.553h-16.39c-0.857,0-1.552-0.695-1.552-1.553
	s0.694-1.553,1.552-1.553h16.39C76.662,12.773,77.357,13.468,77.357,14.326z"/>
<path fill="#BE8CF1" d="M34.158,3.045C15.293,3.045,0,17.14,0,34.528c0,7.946,3.201,15.199,8.471,20.741l-4.004,12.13L17.72,62.13
	c4.878,2.472,10.479,3.88,16.438,3.88c9.994,0,18.986-3.956,25.231-10.263V13.308C53.145,7.003,44.152,3.045,34.158,3.045z"/>
<path fill="none" stroke="#3D3736" stroke-width="2.7" stroke-miterlimit="10" d="M67.61,70.301L67.61,70.301
	c-0.526,0-1.02-0.25-1.332-0.673l-7.293-9.901c-0.21-0.285-0.323-0.628-0.323-0.981V10.105c0-0.914,0.741-1.654,1.653-1.654h14.588
	c0.914,0,1.654,0.74,1.654,1.654v48.643c0,0.354-0.113,0.696-0.322,0.981l-7.294,9.9C68.631,70.051,68.136,70.301,67.61,70.301z"/>
<polygon fill="#3D3736" points="67.609,71.35 73.433,63.446 61.788,63.446 "/>
<path fill="none" stroke="#3D3736" stroke-width="2.7" stroke-miterlimit="10" d="M62.994,8.449c-0.666,0-1.206-0.539-1.206-1.206
	V5.441c0-2.256,1.835-4.091,4.09-4.091h3.466c2.254,0,4.089,1.836,4.089,4.091v1.802c0,0.667-0.54,1.208-1.207,1.208"/>
<circle fill="#3D3736" cx="17.469" cy="35.222" r="3.494"/>
<circle fill="#3D3736" cx="31.831" cy="35.222" r="3.494"/>
<circle fill="#3D3736" cx="46.193" cy="35.222" r="3.493"/>
</svg>
