<?xml version="1.0" encoding="utf-8"?>
<!-- Generator: Adobe Illustrator 15.1.0, SVG Export Plug-In  -->
<!DOCTYPE svg PUBLIC "-//W3C//DTD SVG 1.1 Tiny//EN" "http://www.w3.org/Graphics/SVG/1.1/DTD/svg11-tiny.dtd" [
	<!ENTITY ns_flows "http://ns.adobe.com/Flows/1.0/">
]>
<svg version="1.1" baseProfile="tiny"
	 xmlns="http://www.w3.org/2000/svg" xmlns:xlink="http://www.w3.org/1999/xlink" xmlns:a="http://ns.adobe.com/AdobeSVGViewerExtensions/3.0/"
	 x="0px" y="0px" width="100px" height="100px" viewBox="-15.58 -13.545 100 100" xml:space="preserve">
<defs>
</defs>
<path fill="#3D3736" d="M66.497,65.484H1.352C0.605,65.484,0,64.88,0,64.134V6.344c0-0.746,0.605-1.352,1.352-1.352h65.146
	c0.746,0,1.352,0.605,1.352,1.352v57.79C67.849,64.88,67.243,65.484,66.497,65.484z M2.702,62.782h62.444V7.694H2.702V62.782z"/>
<path fill="#3D3736" d="M65.446,20.828H2.402c-0.746,0-1.351-0.605-1.351-1.352s0.604-1.351,1.351-1.351h63.044
	c0.746,0,1.352,0.604,1.352,1.351S66.192,20.828,65.446,20.828z"/>
<path fill="#3D3736" d="M9.757,14.261c-0.745,0-1.351-0.604-1.351-1.351V1.352C8.406,0.605,9.012,0,9.757,0
	c0.746,0,1.352,0.605,1.352,1.352V12.91C11.108,13.656,10.503,14.261,9.757,14.261z"/>
<path fill="#3D3736" d="M17.9,14.261c-0.746,0-1.351-0.604-1.351-1.351V1.352C16.55,0.605,17.154,0,17.9,0s1.352,0.605,1.352,1.352
	V12.91C19.252,13.656,18.646,14.261,17.9,14.261z"/>
<path fill="#3D3736" d="M49.948,14.261c-0.746,0-1.351-0.604-1.351-1.351V1.352C48.598,0.605,49.202,0,49.948,0
	S51.3,0.605,51.3,1.352V12.91C51.3,13.656,50.694,14.261,49.948,14.261z"/>
<path fill="#3D3736" d="M58.092,14.261c-0.746,0-1.352-0.604-1.352-1.351V1.352C56.74,0.605,57.346,0,58.092,0
	s1.351,0.605,1.351,1.352V12.91C59.442,13.656,58.838,14.261,58.092,14.261z"/>
<path fill="#3D3736" d="M19.739,37.115h-7.881c-0.745,0-1.351-0.605-1.351-1.352v-7.881c0-0.746,0.605-1.351,1.351-1.351h7.881
	c0.747,0,1.351,0.604,1.351,1.351v7.881C21.09,36.51,20.486,37.115,19.739,37.115z M13.21,34.413h5.178v-5.179H13.21V34.413z"/>
<path fill="#3D3736" d="M37.865,37.115h-7.881c-0.746,0-1.351-0.605-1.351-1.352v-7.881c0-0.746,0.604-1.351,1.351-1.351h7.881
	c0.746,0,1.351,0.604,1.351,1.351v7.881C39.216,36.51,38.611,37.115,37.865,37.115z M31.336,34.413h5.178v-5.179h-5.178V34.413z"/>
<path fill="#3D3736" d="M55.99,37.115h-7.882c-0.745,0-1.351-0.605-1.351-1.352v-7.881c0-0.746,0.605-1.351,1.351-1.351h7.882
	c0.745,0,1.352,0.604,1.352,1.351v7.881C57.342,36.51,56.735,37.115,55.99,37.115z M49.46,34.413h5.18v-5.179h-5.18V34.413z"/>
<path fill="#3D3736" d="M19.739,53.139h-7.881c-0.745,0-1.351-0.604-1.351-1.351v-7.882c0-0.746,0.605-1.351,1.351-1.351h7.881
	c0.747,0,1.351,0.604,1.351,1.351v7.882C21.09,52.534,20.486,53.139,19.739,53.139z M13.21,50.437h5.178v-5.179H13.21V50.437z"/>
<circle fill="#FFE422" cx="43.042" cy="56.203" r="15.993"/>
<path fill="#FFE422" d="M43.042,73.548c-9.563,0-17.344-7.78-17.344-17.345c0-9.563,7.78-17.343,17.344-17.343
	s17.345,7.78,17.345,17.343C60.387,65.768,52.605,73.548,43.042,73.548z M43.042,41.562c-8.074,0-14.642,6.569-14.642,14.642
	c0,8.074,6.567,14.643,14.642,14.643s14.643-6.568,14.643-14.643C57.685,48.131,51.116,41.562,43.042,41.562z"/>
<path fill="#3D3736" d="M46.523,67.265h-6.963c-0.746,0-1.351-0.605-1.351-1.352v-4.877h-4.877c-0.746,0-1.351-0.605-1.351-1.352
	v-6.961c0-0.747,0.604-1.352,1.351-1.352h4.877v-4.878c0-0.746,0.604-1.351,1.351-1.351h6.963c0.745,0,1.351,0.604,1.351,1.351
	v4.878h4.878c0.747,0,1.351,0.604,1.351,1.352v6.961c0,0.746-0.604,1.352-1.351,1.352h-4.878v4.877
	C47.874,66.659,47.269,67.265,46.523,67.265z M40.912,64.563h4.26v-4.878c0-0.745,0.605-1.351,1.352-1.351H51.4v-4.261h-4.877
	c-0.746,0-1.352-0.604-1.352-1.35v-4.878h-4.26v4.878c0,0.746-0.605,1.35-1.352,1.35h-4.876v4.261h4.876
	c0.746,0,1.352,0.605,1.352,1.351V64.563z"/>
</svg>
