<?xml version="1.0" encoding="utf-8"?>
<!-- Generator: Adobe Illustrator 15.1.0, SVG Export Plug-In  -->
<!DOCTYPE svg PUBLIC "-//W3C//DTD SVG 1.1 Tiny//EN" "http://www.w3.org/Graphics/SVG/1.1/DTD/svg11-tiny.dtd" [
	<!ENTITY ns_flows "http://ns.adobe.com/Flows/1.0/">
]>
<svg version="1.1" baseProfile="tiny"
	 xmlns="http://www.w3.org/2000/svg" xmlns:xlink="http://www.w3.org/1999/xlink" xmlns:a="http://ns.adobe.com/AdobeSVGViewerExtensions/3.0/"
	 x="0px" y="0px" width="100px" height="100px" viewBox="-19.432 -8.087 100 100" xml:space="preserve">
<defs>
</defs>
<circle fill="none" stroke="#3D3736" stroke-width="2.7" stroke-linecap="round" stroke-linejoin="round" stroke-miterlimit="10" cx="13.509" cy="28.655" r="2.869"/>
<line fill="none" stroke="#3D3736" stroke-width="2.7" stroke-linecap="round" stroke-linejoin="round" stroke-miterlimit="10" x1="22.978" y1="28.655" x2="48.23" y2="28.655"/>
<circle fill="none" stroke="#3D3736" stroke-width="2.7" stroke-linecap="round" stroke-linejoin="round" stroke-miterlimit="10" cx="13.509" cy="41.854" r="2.869"/>
<line fill="none" stroke="#3D3736" stroke-width="2.7" stroke-linecap="round" stroke-linejoin="round" stroke-miterlimit="10" x1="22.978" y1="41.854" x2="35.676" y2="41.854"/>
<circle fill="none" stroke="#3D3736" stroke-width="2.7" stroke-linecap="round" stroke-linejoin="round" stroke-miterlimit="10" cx="13.509" cy="55.054" r="2.869"/>
<line fill="none" stroke="#3D3736" stroke-width="2.7" stroke-linecap="round" stroke-linejoin="round" stroke-miterlimit="10" x1="22.978" y1="55.054" x2="36.752" y2="55.054"/>
<path fill="none" stroke="#3D3736" stroke-width="2.7" stroke-linecap="round" stroke-linejoin="round" stroke-miterlimit="10" d="
	M54.557,74.898H5.309c-2.187,0-3.959-1.773-3.959-3.96V14.67c0-2.187,1.772-3.959,3.959-3.959h49.248c2.188,0,3.96,1.772,3.96,3.959
	v56.268C58.517,73.125,56.744,74.898,54.557,74.898z"/>
<rect x="18.567" y="7.876" fill="#FF9E00" stroke="#FF9E00" stroke-width="2.7" stroke-linecap="round" stroke-linejoin="round" stroke-miterlimit="10" width="22.732" height="7.354"/>
<circle fill="none" stroke="#FF9E00" stroke-width="2.7" stroke-linecap="round" stroke-linejoin="round" stroke-miterlimit="10" cx="29.933" cy="6.7" r="5.349"/>
<path fill="none" stroke="#3D3736" stroke-width="2.7" stroke-linecap="round" stroke-linejoin="round" stroke-miterlimit="10" d="
	M73.417,67.539L73.417,67.539c-1.372,1.371-3.594,1.371-4.965,0L58.406,57.492l4.964-4.964l10.047,10.047
	C74.787,63.945,74.787,66.168,73.417,67.539z"/>
<circle fill="#FF9E00" stroke="#FF9E00" stroke-width="2.7" stroke-linecap="round" stroke-linejoin="round" stroke-miterlimit="10" cx="53.56" cy="47.682" r="13.038"/>
<polyline fill="none" stroke="#3D3736" stroke-width="2.7" stroke-linecap="round" stroke-linejoin="round" stroke-miterlimit="10" points="
	46.867,49.172 51.495,53.799 60.641,44.652 "/>
</svg>
